<svg id="圖層_1" data-name="圖層 1" xmlns="http://www.w3.org/2000/svg" viewBox="0 0 20.71 27.49"><defs><style>.cls-1{fill:none;stroke:#fff;stroke-miterlimit:10;stroke-width:0.8px;}</style></defs><title>切圖</title><path class="cls-1" d="M13.53,5.33a2.47,2.47,0,1,0-2.46-2.47A2.47,2.47,0,0,0,13.53,5.33ZM9.09,22.45,10.33,17l2.58,2.47,2.85,7.41,2.52-1.44-2.9-7.82-2.59-2.47.74-3.69a9,9,0,0,0,6.78,3.08V12.1A6.06,6.06,0,0,1,15,9.15l-1.23-2a2.57,2.57,0,0,0-2.1-1.24c-.37,0-.61.13-1,.13L4.29,8.78v5.79H6.75V10.38L9,9.52l-2,10L1,18.26.47,20.73Z"/></svg>