<svg id="圖層_1" data-name="圖層 1" xmlns="http://www.w3.org/2000/svg" viewBox="0 0 20.11 17.77"><defs><style>.cls-1{fill:none;stroke:#8cc63f;stroke-miterlimit:10;stroke-width:0.8px;}</style></defs><title>切圖</title><path class="cls-1" d="M18.24,13.35h0L4.39,9.51l-.13,0h0a2.25,2.25,0,0,0-.58-.07c-1.8,0-3.25,1.78-3.25,4s1.35,3.85,3.05,4H18.07a1.85,1.85,0,0,0,1.64-2A1.9,1.9,0,0,0,18.24,13.35Z"/><polyline class="cls-1" points="19.63 0.4 18.43 2.5 13.33 4.3"/><line class="cls-1" x1="16.93" y1="4.3" x2="14.23" y2="11.8"/><circle class="cls-1" cx="4.18" cy="12.62" r="1.2"/><rect class="cls-1" x="1.78" y="4.15" width="5.4" height="2.1" rx="1.05" ry="1.05"/><line class="cls-1" x1="4.48" y1="6.25" x2="5.38" y2="9.85"/><line class="cls-1" x1="4.48" y1="13.82" x2="5.03" y2="15.66"/><line class="cls-1" x1="3.28" y1="15.55" x2="6.68" y2="15.55"/></svg>