<svg id="圖層_1" data-name="圖層 1" xmlns="http://www.w3.org/2000/svg" viewBox="0 0 18.23 22.18"><defs><style>.cls-1{fill:none;stroke:#8cc63f;stroke-miterlimit:10;stroke-width:0.8px;}</style></defs><title>切圖</title><polyline class="cls-1" points="13.78 0.27 10.89 6.06 13.78 17.48"/><polyline class="cls-1" points="17.81 0.27 13.78 6.7 13.78 17.8"/><path class="cls-1" d="M15.24,18.18h0L3.72,15.44l-.11,0h0a2.45,2.45,0,0,0-.48,0A3,3,0,0,0,.5,18.59a3,3,0,0,0,2.6,3.07h.17l11.92-.32a1.49,1.49,0,0,0,1.31-1.62A1.52,1.52,0,0,0,15.24,18.18Z"/><circle class="cls-1" cx="3.57" cy="18.69" r="1.13"/></svg>