<svg id="圖層_1" data-name="圖層 1" xmlns="http://www.w3.org/2000/svg" viewBox="0 0 20.41 20.41"><defs><style>.cls-1{fill:none;stroke:#fff;stroke-miterlimit:10;stroke-width:0.8px;}</style></defs><title>切圖</title><path class="cls-1" d="M19.48,8H17.85a7.83,7.83,0,0,0-.57-1.33l1-1a.54.54,0,0,0,0-.76L16,2.48a.53.53,0,0,0-.75,0l-1,1a7.72,7.72,0,0,0-1.77-.75V.94A.54.54,0,0,0,11.89.4H8.53A.54.54,0,0,0,8,.94V2.73a7.91,7.91,0,0,0-1.77.75L4.83,2.08a.56.56,0,0,0-.76,0L1.69,4.46a.54.54,0,0,0,0,.76L3.13,6.66A8.69,8.69,0,0,0,2.57,8H.94a.54.54,0,0,0-.54.54v3.36a.54.54,0,0,0,.54.53H2.45a8.12,8.12,0,0,0,.8,2L2.08,15.59a.54.54,0,0,0,0,.75l2.38,2.38a.54.54,0,0,0,.76,0l1.21-1.21A7.81,7.81,0,0,0,8,18.13v1.35a.54.54,0,0,0,.54.53h3.36a.53.53,0,0,0,.53-.53V18.13A7.57,7.57,0,0,0,14,17.51l.82.82a.54.54,0,0,0,.76,0L17.94,16a.53.53,0,0,0,0-.75l-.78-.78a8.15,8.15,0,0,0,.81-2h1.51a.53.53,0,0,0,.53-.53V8.53A.54.54,0,0,0,19.48,8Zm-9.27,5.54a3.33,3.33,0,1,1,3.32-3.32A3.33,3.33,0,0,1,10.21,13.53Z"/></svg>