<svg id="圖層_1" data-name="圖層 1" xmlns="http://www.w3.org/2000/svg" viewBox="0 0 22.12 22.62"><defs><style>.cls-1{fill:none;stroke:#8cc63f;stroke-miterlimit:10;stroke-width:0.8px;}</style></defs><title>切圖</title><path class="cls-1" d="M16,14.29h0L5.13,12.8l-.1,0H4.55a2.51,2.51,0,0,0,.28,5H5l11.1-1A1.27,1.27,0,0,0,16,14.29Z"/><line class="cls-1" x1="4.48" y1="12.8" x2="3.05" y2="8.99"/><line class="cls-1" x1="2.13" y1="22.45" x2="3.55" y2="17.62"/><line class="cls-1" x1="20" y1="22.45" x2="18.3" y2="19.04"/><line class="cls-1" x1="15.6" y1="11.13" x2="14.04" y2="3.16"/><path class="cls-1" d="M12.35,13.79a4.26,4.26,0,1,1,.09,3.34"/><rect class="cls-1" x="0.43" y="7.55" width="4.29" height="1.43" rx="0.72" ry="0.72"/><rect class="cls-1" x="3.83" y="14.22" width="1.7" height="1.7" rx="0.85" ry="0.85"/><line class="cls-1" x1="12.91" y1="3.16" x2="16.88" y2="0.32"/><line class="cls-1" x1="17.87" y1="22.45" x2="22.12" y2="22.45"/><line class="cls-1" y1="22.45" x2="4.25" y2="22.45"/></svg>