<svg id="圖層_1" data-name="圖層 1" xmlns="http://www.w3.org/2000/svg" viewBox="0 0 36.16 31.51"><defs><style>.cls-1{fill:none;stroke:#508447;stroke-miterlimit:10;stroke-width:2px;}</style></defs><title>切圖</title><path class="cls-1" d="M32.55,23.4h0L8.05,16.61l-.21-.07H7.77a5,5,0,0,0-1-.12C3.57,16.41,1,19.57,1,23.46s2.38,6.81,5.39,7v0H32.26c1.6,0,2.9-1.6,2.9-3.56A3.38,3.38,0,0,0,32.55,23.4Z"/><polyline class="cls-1" points="35.02 0.5 32.89 4.21 23.87 7.39"/><line class="cls-1" x1="30.24" y1="7.39" x2="25.46" y2="20.66"/><circle class="cls-1" cx="7.69" cy="22.12" r="2.12"/><path class="cls-1" d="M11.14,10.84H5.3A1.85,1.85,0,0,1,3.45,9h0A1.85,1.85,0,0,1,5.3,7.13h5.84A1.86,1.86,0,0,1,13,9h0A1.86,1.86,0,0,1,11.14,10.84Z"/><line class="cls-1" x1="8.22" y1="10.84" x2="9.81" y2="17.21"/><line class="cls-1" x1="8.22" y1="24.24" x2="9.19" y2="27.49"/><line class="cls-1" x1="6.1" y1="27.29" x2="12.1" y2="27.29"/></svg>