<svg id="圖層_1" data-name="圖層 1" xmlns="http://www.w3.org/2000/svg" viewBox="0 0 32.32 39.24"><defs><style>.cls-1{fill:none;stroke:#508447;stroke-miterlimit:10;stroke-width:2px;}</style></defs><title>切圖</title><polyline class="cls-1" points="24.39 0.53 19.29 10.73 24.39 30.84"/><polyline class="cls-1" points="31.47 0.53 24.39 11.86 24.39 31.41"/><path class="cls-1" d="M27,32.07h0L6.66,27.25l-.18,0H6.43a4,4,0,0,0-.85-.07C3,27.2.92,29.74,1,32.8s2.1,5.3,4.58,5.41h.29l21-.56a2.61,2.61,0,0,0,2.31-2.86A2.66,2.66,0,0,0,27,32.07Z"/><path class="cls-1" d="M6.4,31a2,2,0,1,0,2,2A2,2,0,0,0,6.4,31Z"/></svg>