<svg id="圖層_1" data-name="圖層 1" xmlns="http://www.w3.org/2000/svg" viewBox="0 0 37.81 39.35"><defs><style>.cls-1{fill:none;stroke:#508447;stroke-miterlimit:10;stroke-width:2px;}</style></defs><title>切圖</title><path class="cls-1" d="M27.4,24.51h0L9,22l-.16,0H8.76A3.85,3.85,0,0,0,8,22a4.25,4.25,0,0,0,.46,8.48v0l.25,0h0l18.83-1.62a2.15,2.15,0,0,0-.16-4.3Z"/><line class="cls-1" x1="7.89" y1="21.99" x2="5.45" y2="15.51"/><line class="cls-1" x1="3.89" y1="38.35" x2="6.29" y2="30.17"/><line class="cls-1" x1="34.21" y1="38.35" x2="31.32" y2="32.58"/><line class="cls-1" x1="26.74" y1="19.15" x2="24.1" y2="5.63"/><path class="cls-1" d="M21.23,23.67a7.22,7.22,0,1,1,.16,5.67"/><path class="cls-1" d="M7.07,15.51H2.21A1.21,1.21,0,0,1,1,14.3H1a1.21,1.21,0,0,1,1.21-1.21H7.07A1.21,1.21,0,0,1,8.28,14.3h0A1.21,1.21,0,0,1,7.07,15.51Z"/><path class="cls-1" d="M8.22,27.28h0a1.45,1.45,0,0,1-1.45-1.44h0a1.45,1.45,0,0,1,1.45-1.45h0a1.45,1.45,0,0,1,1.44,1.45h0A1.45,1.45,0,0,1,8.22,27.28Z"/><line class="cls-1" x1="22.17" y1="5.63" x2="28.91" y2="0.81"/><line class="cls-1" x1="30.6" y1="38.35" x2="37.81" y2="38.35"/><line class="cls-1" x1="0.28" y1="38.35" x2="7.5" y2="38.35"/></svg>