<svg id="圖層_1" data-name="圖層 1" xmlns="http://www.w3.org/2000/svg" viewBox="0 0 30.47 22.33"><defs><style>.cls-1{fill:none;stroke:#fff;stroke-miterlimit:10;stroke-width:1.58px;}</style></defs><title>切圖</title><path class="cls-1" d="M29.68,9.67a5.33,5.33,0,1,1-5.33-5.33A5.33,5.33,0,0,1,29.68,9.67Z"/><circle class="cls-1" cx="24.39" cy="9.62" r="1.88"/><line class="cls-1" x1="20.14" y1="6.4" x2="16.1" y2="3.45"/><line class="cls-1" x1="15.47" y1="4.5" x2="17.15" y2="0.29"/><line class="cls-1" x1="5.31" y1="16.87" x2="4.34" y2="21.36"/><line class="cls-1" x1="1.35" y1="21.54" x2="7.08" y2="21.54"/><line class="cls-1" x1="24.26" y1="15" x2="22.28" y2="21.54"/><line class="cls-1" x1="18.65" y1="21.54" x2="25.72" y2="21.54"/><path class="cls-1" d="M21.35,14.32,13,16.87H2A1.26,1.26,0,0,1,.79,15.54h0A1.26,1.26,0,0,1,2,14.21H13.05l6.64-2.67"/></svg>