<svg id="圖層_1" data-name="圖層 1" xmlns="http://www.w3.org/2000/svg" viewBox="0 0 32 32"><defs><style>.cls-1{fill:#4a94ff;}.cls-2{fill:none;stroke:#fff;stroke-miterlimit:10;stroke-width:2.01px;}</style></defs><title>切圖</title><path class="cls-1" d="M32,16A16,16,0,1,1,16,0,16,16,0,0,1,32,16Z"/><path class="cls-2" d="M16,25.91h0A9.94,9.94,0,0,1,6.09,16h0A9.94,9.94,0,0,1,16,6.09h0A9.94,9.94,0,0,1,25.91,16h0A9.94,9.94,0,0,1,16,25.91Z"/><line class="cls-2" x1="15.87" y1="16.57" x2="21.72" y2="11.73"/><line class="cls-2" x1="16" y1="6.09" x2="16" y2="9.79"/><line class="cls-2" x1="6.09" y1="16" x2="10.03" y2="16"/><line class="cls-2" x1="25.14" y1="16" x2="22.09" y2="16"/></svg>