<svg id="圖層_1" data-name="圖層 1" xmlns="http://www.w3.org/2000/svg" viewBox="0 0 32 32"><defs><style>.cls-1{fill:#ffc50b;}.cls-2{fill:none;stroke:#fff;stroke-miterlimit:10;stroke-width:2.01px;}</style></defs><title>切圖</title><path class="cls-1" d="M32,16A16,16,0,1,1,16,0,16,16,0,0,1,32,16Z"/><path class="cls-2" d="M17.93,5.33a21.7,21.7,0,0,1,.75,4.86A3.51,3.51,0,0,1,15.23,14a3.68,3.68,0,0,1-3.67-3.77l0-.37a13.92,13.92,0,0,0-3.27,9,8.1,8.1,0,0,0,16.19,0A17.31,17.31,0,0,0,17.93,5.33ZM16.12,23.88a3.22,3.22,0,0,1-3.26-3.18,3.17,3.17,0,0,1,2.84-3.16,7.74,7.74,0,0,0,4.68-2.61A14.3,14.3,0,0,1,21,19,4.87,4.87,0,0,1,16.12,23.88Z"/></svg>