<svg id="圖層_1" data-name="圖層 1" xmlns="http://www.w3.org/2000/svg" viewBox="0 0 32 32"><defs><style>.cls-1{fill:#e24949;}.cls-2{fill:#fff;}</style></defs><title>切圖</title><circle class="cls-1" cx="16" cy="16" r="16" transform="translate(-4.9 7.34) rotate(-22.5)"/><g id="_群組_" data-name="&lt;群組&gt;"><path class="cls-2" d="M20.87,7.93c-.28,0-.55,0-.8,0-2,0-3,.87-4.07,2.18-1.1-1.31-2.06-2.18-4.07-2.18-.25,0-.52,0-.8,0-1.74.17-3.75,1.76-4,4.81v1a8.3,8.3,0,0,0,1.21,3.59H12.4l2-4.39,2,4.39h5.75v1.09H15.67L14.4,15.6l-1.3,2.83h-4A28.82,28.82,0,0,0,16,24.78c6.43-4.51,8.64-8.11,8.86-11v-1C24.62,9.69,22.61,8.1,20.87,7.93Z"/></g></svg>