<svg id="圖層_1" data-name="圖層 1" xmlns="http://www.w3.org/2000/svg" viewBox="0 0 24.85 30.16"><defs><style>.cls-1{fill:none;stroke:#fff;stroke-miterlimit:10;stroke-width:1.58px;}</style></defs><title>切圖</title><polyline class="cls-1" points="18.75 0.42 14.83 8.25 18.75 23.68"/><polyline class="cls-1" points="24.18 0.42 18.75 9.12 18.75 24.12"/><path class="cls-1" d="M20.71,24.63h0L5.14,20.93,5,20.9H5a2.81,2.81,0,0,0-.65-.05c-2,.05-3.58,2-3.52,4.35a4,4,0,0,0,3.52,4.15h.22l16.11-.43a2,2,0,0,0,1.78-2.2A2,2,0,0,0,20.71,24.63Z"/><path class="cls-1" d="M4.94,23.79a1.53,1.53,0,1,0,1.52,1.53A1.51,1.51,0,0,0,4.94,23.79Z"/></svg>