<svg id="圖層_1" data-name="圖層 1" xmlns="http://www.w3.org/2000/svg" viewBox="0 0 29.82 25.99"><defs><style>.cls-1{fill:none;stroke:#fff;stroke-miterlimit:10;stroke-width:1.58px;}</style></defs><title>切圖</title><path class="cls-1" d="M26.86,19.32h0L6.62,13.71l-.18-.05-.05,0h0a3.47,3.47,0,0,0-.85-.1c-2.62,0-4.75,2.6-4.75,5.82s2,5.62,4.46,5.81v0H26.62A2.71,2.71,0,0,0,29,22.25,2.78,2.78,0,0,0,26.86,19.32Z"/><polyline class="cls-1" points="28.9 0.39 27.15 3.46 19.69 6.09"/><line class="cls-1" x1="24.96" y1="6.09" x2="21.01" y2="17.05"/><path class="cls-1" d="M8.08,18.26a1.76,1.76,0,1,1-1.76-1.75A1.75,1.75,0,0,1,8.08,18.26Z"/><path class="cls-1" d="M9.17,8.94H4.35A1.54,1.54,0,0,1,2.81,7.41h0A1.55,1.55,0,0,1,4.35,5.87H9.17a1.55,1.55,0,0,1,1.54,1.54h0A1.54,1.54,0,0,1,9.17,8.94Z"/><line class="cls-1" x1="6.76" y1="8.94" x2="8.08" y2="14.2"/><line class="cls-1" x1="6.76" y1="20.01" x2="7.56" y2="22.7"/><line class="cls-1" x1="5.01" y1="22.54" x2="9.97" y2="22.54"/></svg>