<svg id="圖層_1" data-name="圖層 1" xmlns="http://www.w3.org/2000/svg" viewBox="0 0 26.57 27.72"><defs><style>.cls-1{fill:none;stroke:#fff;stroke-miterlimit:10;stroke-width:1.58px;}</style></defs><title>切圖</title><path class="cls-1" d="M19.28,17.24h0L6.38,15.47l-.12,0h0a2.44,2.44,0,0,0-.54,0A3,3,0,0,0,6,21.39H6l.17,0h0l13.19-1.13a1.51,1.51,0,0,0-.11-3Z"/><line class="cls-1" x1="5.62" y1="15.47" x2="3.91" y2="10.94"/><line class="cls-1" x1="2.81" y1="26.93" x2="4.5" y2="21.2"/><line class="cls-1" x1="24.05" y1="26.93" x2="22.02" y2="22.89"/><line class="cls-1" x1="18.82" y1="13.49" x2="16.97" y2="4.01"/><path class="cls-1" d="M15,16.65a5.05,5.05,0,1,1,.11,4"/><path class="cls-1" d="M5,10.94H1.64a.85.85,0,0,1-.85-.85h0a.85.85,0,0,1,.85-.85H5a.85.85,0,0,1,.85.85h0A.85.85,0,0,1,5,10.94Z"/><path class="cls-1" d="M5.85,19.18h0a1,1,0,0,1-1-1h0a1,1,0,0,1,1-1h0a1,1,0,0,1,1,1h0A1,1,0,0,1,5.85,19.18Z"/><line class="cls-1" x1="15.62" y1="4.01" x2="20.34" y2="0.64"/><line class="cls-1" x1="21.52" y1="26.93" x2="26.57" y2="26.93"/><line class="cls-1" x1="0.29" y1="26.93" x2="5.34" y2="26.93"/></svg>