<svg id="圖層_1" data-name="圖層 1" xmlns="http://www.w3.org/2000/svg" viewBox="0 0 46 46"><defs><style>.cls-1{fill:#159bff;}.cls-2{fill:none;stroke:#fff;stroke-miterlimit:10;stroke-width:1.37px;}</style></defs><title>切圖</title><circle class="cls-1" cx="23" cy="23" r="23"/><path class="cls-2" d="M39.07,18a6.18,6.18,0,1,1-6.18-6.17A6.18,6.18,0,0,1,39.07,18Z"/><circle class="cls-2" cx="32.94" cy="17.9" r="2.18"/><line class="cls-2" x1="28.01" y1="14.16" x2="23.33" y2="10.75"/><line class="cls-2" x1="22.6" y1="11.97" x2="24.55" y2="7.09"/><line class="cls-2" x1="10.83" y1="26.3" x2="9.7" y2="31.5"/><line class="cls-2" x1="6.23" y1="31.72" x2="12.87" y2="31.72"/><line class="cls-2" x1="32.78" y1="24.13" x2="30.49" y2="31.72"/><line class="cls-2" x1="26.28" y1="31.72" x2="34.48" y2="31.72"/><path class="cls-2" d="M29.41,23.35,19.72,26.3H6.94a1.47,1.47,0,0,1-1.36-1.54h0a1.47,1.47,0,0,1,1.36-1.55H19.8l7.69-3.08"/></svg>