<svg id="圖層_1" data-name="圖層 1" xmlns="http://www.w3.org/2000/svg" viewBox="0 0 46 46"><defs><style>.cls-1{fill:#77c46c;}.cls-2{fill:none;stroke:#fff;stroke-miterlimit:10;stroke-width:1.37px;}</style></defs><title>切圖</title><circle class="cls-1" cx="23" cy="23" r="23"/><path class="cls-2" d="M32.89,29.09h0L12.66,23.48l-.18-.06h-.05a3.47,3.47,0,0,0-.85-.1c-2.62,0-4.74,2.6-4.74,5.82s2,5.62,4.45,5.8v0H32.65a2.72,2.72,0,0,0,2.4-3A2.78,2.78,0,0,0,32.89,29.09Z"/><polyline class="cls-2" points="34.93 10.17 33.17 13.24 25.73 15.87"/><line class="cls-2" x1="30.98" y1="15.87" x2="27.04" y2="26.82"/><circle class="cls-2" cx="12.36" cy="28.03" r="1.75"/><path class="cls-2" d="M15.21,18.72H10.39a1.54,1.54,0,0,1-1.53-1.54h0a1.54,1.54,0,0,1,1.53-1.53h4.82a1.54,1.54,0,0,1,1.53,1.53h0A1.54,1.54,0,0,1,15.21,18.72Z"/><line class="cls-2" x1="12.8" y1="18.72" x2="14.12" y2="23.97"/><line class="cls-2" x1="12.8" y1="29.78" x2="13.6" y2="32.46"/><line class="cls-2" x1="11.05" y1="32.3" x2="16.01" y2="32.3"/></svg>