<svg id="圖層_1" data-name="圖層 1" xmlns="http://www.w3.org/2000/svg" viewBox="0 0 46 46"><defs><style>.cls-1{fill:#f24dff;}.cls-2{fill:none;stroke:#fff;stroke-miterlimit:10;stroke-width:1.37px;}</style></defs><title>切圖</title><circle class="cls-1" cx="23" cy="23" r="23"/><polyline class="cls-2" points="26.5 6.25 22.74 13.77 26.5 28.58"/><polyline class="cls-2" points="31.72 6.25 26.5 14.6 26.5 29"/><path class="cls-2" d="M28.38,29.49h0L13.44,25.94l-.13,0h0a4.34,4.34,0,0,0-.63,0c-1.92,0-3.43,1.92-3.37,4.18a3.86,3.86,0,0,0,3.38,4h.21l15.46-.41A1.93,1.93,0,0,0,30,31.5,2,2,0,0,0,28.38,29.49Z"/><path class="cls-2" d="M13.25,28.69a1.46,1.46,0,1,0,1.46,1.46A1.44,1.44,0,0,0,13.25,28.69Z"/></svg>