<svg id="圖層_1" data-name="圖層 1" xmlns="http://www.w3.org/2000/svg" viewBox="0 0 46 46"><defs><style>.cls-1{fill:#00aeb2;}.cls-2{fill:none;stroke:#fff;stroke-miterlimit:10;stroke-width:1.37px;}</style></defs><title>切圖</title><circle class="cls-1" cx="23" cy="23" r="23"/><path class="cls-2" d="M28.25,24h0L14.54,22.14l-.12,0h0a2.72,2.72,0,0,0-.57,0,3.16,3.16,0,0,0,.35,6.31h0l.18,0h0l14-1.2a1.6,1.6,0,0,0-.12-3.2Z"/><line class="cls-2" x1="13.73" y1="22.14" x2="11.92" y2="17.33"/><line class="cls-2" x1="10.75" y1="34.32" x2="12.55" y2="28.23"/><line class="cls-2" x1="33.31" y1="34.32" x2="31.17" y2="30.02"/><line class="cls-2" x1="27.76" y1="20.03" x2="25.79" y2="9.97"/><path class="cls-2" d="M23.66,23.39a5.38,5.38,0,1,1,.12,4.22"/><path class="cls-2" d="M13.12,17.33H9.51a.9.9,0,0,1-.9-.91h0a.9.9,0,0,1,.9-.9h3.61a.91.91,0,0,1,.91.9h0A.91.91,0,0,1,13.12,17.33Z"/><path class="cls-2" d="M14,26.08h0A1.08,1.08,0,0,1,12.9,25h0A1.08,1.08,0,0,1,14,23.94h0A1.07,1.07,0,0,1,15.05,25h0A1.07,1.07,0,0,1,14,26.08Z"/><line class="cls-2" x1="24.36" y1="9.97" x2="29.38" y2="6.39"/><line class="cls-2" x1="30.63" y1="34.32" x2="36" y2="34.32"/><line class="cls-2" x1="8.07" y1="34.32" x2="13.44" y2="34.32"/></svg>