<svg id="圖層_1" data-name="圖層 1" xmlns="http://www.w3.org/2000/svg" viewBox="0 0 26.25 26.25"><defs><style>.cls-1{fill:none;stroke:#000;stroke-miterlimit:10;stroke-width:2.25px;}</style></defs><title>切圖</title><circle class="cls-1" cx="13.13" cy="13.13" r="12"/><path d="M14.46,16H12.29c0-.31,0-.5,0-.57a3.8,3.8,0,0,1,.35-1.73A5.42,5.42,0,0,1,14,12.15,9.49,9.49,0,0,0,15.27,11a1.47,1.47,0,0,0,.32-.92A1.55,1.55,0,0,0,15,8.92a2.17,2.17,0,0,0-1.5-.5A2.23,2.23,0,0,0,12,8.94a2.8,2.8,0,0,0-.85,1.58L9,10.25a3.63,3.63,0,0,1,1.3-2.59A4.62,4.62,0,0,1,13.43,6.6,4.74,4.74,0,0,1,16.7,7.68a3.25,3.25,0,0,1,1.22,2.5,2.74,2.74,0,0,1-.45,1.5,9.74,9.74,0,0,1-1.91,1.92,3.77,3.77,0,0,0-.94,1A3.52,3.52,0,0,0,14.46,16Zm-2.17,4.09V17.68h2.39v2.39Z"/></svg>