<svg id="圖層_1" data-name="圖層 1" xmlns="http://www.w3.org/2000/svg" viewBox="0 0 35.03 36.27"><defs><style>.cls-1{fill:none;stroke:#00aeb2;stroke-miterlimit:10;stroke-width:1.4px;}</style></defs><title>切圖</title><path class="cls-1" d="M25.32,22.67h0L8.13,20.31l-.15,0h0a4.33,4.33,0,0,0-.72,0,4,4,0,0,0,.44,7.91h0l.23,0h0l17.56-1.51a2,2,0,0,0-.14-4Z"/><line class="cls-1" x1="7.12" y1="20.31" x2="4.85" y2="14.28"/><line class="cls-1" x1="3.39" y1="35.57" x2="5.64" y2="27.94"/><line class="cls-1" x1="31.66" y1="35.57" x2="28.97" y2="30.18"/><line class="cls-1" x1="24.7" y1="17.67" x2="22.24" y2="5.06"/><path class="cls-1" d="M19.57,21.88a6.72,6.72,0,1,1,.14,5.28"/><rect class="cls-1" x="0.7" y="12.01" width="6.79" height="2.26" rx="1.13" ry="1.13"/><rect class="cls-1" x="6.08" y="22.56" width="2.69" height="2.69" rx="1.35" ry="1.35"/><line class="cls-1" x1="20.44" y1="5.06" x2="26.73" y2="0.57"/><line class="cls-1" x1="28.3" y1="35.57" x2="35.03" y2="35.57"/><line class="cls-1" x1="0.03" y1="35.57" x2="6.76" y2="35.57"/></svg>