<svg id="圖層_1" data-name="圖層 1" xmlns="http://www.w3.org/2000/svg" viewBox="0 0 18 17.15"><defs><style>.cls-1{fill:#fff;}</style></defs><title>切圖</title><path class="cls-1" d="M12.21,9.71A2.79,2.79,0,0,0,9.35,11L9,11.4,8.65,11a2.77,2.77,0,0,0-5.12,1.53v.06A36.7,36.7,0,0,0,9,17.15a36.1,36.1,0,0,0,5.47-4.58v-.1A2.77,2.77,0,0,0,12.21,9.71Z"/><path class="cls-1" d="M18,4.92C17.75,1.83,15.71.21,14,0a7.88,7.88,0,0,0-.82,0c-2,0-3,.88-4.13,2.21C7.88.88,6.9,0,4.87,0a7.88,7.88,0,0,0-.82,0C2.29.21.25,1.83,0,4.92V6a10.23,10.23,0,0,0,2.74,5.74,3.53,3.53,0,0,1,3-2.89A3.52,3.52,0,0,1,9,10a3.6,3.6,0,0,1,6.26,1.7A10.23,10.23,0,0,0,18,6Z"/></svg>