<svg id="圖層_1" data-name="圖層 1" xmlns="http://www.w3.org/2000/svg" viewBox="0 0 18.2 25.32"><defs><style>.cls-1{fill:none;stroke:#fff;stroke-miterlimit:10;stroke-width:2.01px;}</style></defs><title>切圖</title><path class="cls-1" d="M10.62,2.73a21.83,21.83,0,0,1,.75,4.86,3.52,3.52,0,0,1-3.45,3.78A3.69,3.69,0,0,1,4.24,7.59l0-.36a13.91,13.91,0,0,0-3.26,9,8.1,8.1,0,1,0,16.19,0A17.35,17.35,0,0,0,10.62,2.73ZM8.81,21.28A3.22,3.22,0,0,1,5.55,18.1,3.16,3.16,0,0,1,8.39,15a7.9,7.9,0,0,0,4.68-2.61,14.23,14.23,0,0,1,.59,4.08A4.85,4.85,0,0,1,8.81,21.28Z"/></svg>