<svg id="圖層_1" data-name="圖層 1" xmlns="http://www.w3.org/2000/svg" viewBox="0 0 33.54 29.29"><defs><style>.cls-1{fill:none;stroke:#77c46c;stroke-miterlimit:10;stroke-width:1.37px;}</style></defs><title>切圖</title><path class="cls-1" d="M30.39,21.91h0L7.33,15.51l-.21-.06H7.06a4.44,4.44,0,0,0-1-.11c-3,0-5.41,3-5.41,6.63s2.25,6.41,5.08,6.62v0H30.12c1.51,0,2.73-1.5,2.73-3.35A3.17,3.17,0,0,0,30.39,21.91Z"/><polyline class="cls-1" points="32.71 0.34 30.71 3.84 22.22 6.83"/><line class="cls-1" x1="28.22" y1="6.83" x2="23.72" y2="19.32"/><path class="cls-1" d="M9,20.7a2,2,0,1,1-2-2A2,2,0,0,1,9,20.7Z"/><path class="cls-1" d="M10.23,10.08H4.74A1.75,1.75,0,0,1,3,8.33H3A1.75,1.75,0,0,1,4.74,6.58h5.49A1.76,1.76,0,0,1,12,8.33h0A1.76,1.76,0,0,1,10.23,10.08Z"/><line class="cls-1" x1="7.48" y1="10.08" x2="8.98" y2="16.08"/><line class="cls-1" x1="7.48" y1="22.7" x2="8.39" y2="25.76"/><line class="cls-1" x1="5.48" y1="25.57" x2="11.14" y2="25.57"/></svg>