<svg id="圖層_1" data-name="圖層 1" xmlns="http://www.w3.org/2000/svg" viewBox="0 0 31.17 38.04"><defs><style>.cls-1{fill:none;stroke:#f75cd6;stroke-miterlimit:10;stroke-width:1.39px;}</style></defs><title>切圖</title><polyline class="cls-1" points="23.63 0.37 18.63 10.37 23.63 30.09"/><polyline class="cls-1" points="30.57 0.37 23.63 11.48 23.63 30.64"/><path class="cls-1" d="M26.14,31.29h0L6.25,26.57l-.18,0H6a3.83,3.83,0,0,0-.83-.07C2.63,26.52.62,29,.7,32s2.06,5.19,4.49,5.3v0h.27l20.58-.54A2.58,2.58,0,0,0,28.32,34,2.62,2.62,0,0,0,26.14,31.29Z"/><path class="cls-1" d="M6,30.23a1.94,1.94,0,1,0,2,1.94A1.92,1.92,0,0,0,6,30.23Z"/></svg>