<svg id="圖層_1" data-name="圖層 1" xmlns="http://www.w3.org/2000/svg" viewBox="0 0 18 17.15"><defs><style>.cls-1{fill:#fff;}</style></defs><title>切圖</title><g id="_群組_" data-name="&lt;群組&gt;"><path class="cls-1" d="M14,0a7.88,7.88,0,0,0-.82,0c-2,0-3,.88-4.13,2.21C7.88.88,6.9,0,4.87,0a7.88,7.88,0,0,0-.82,0C2.29.21.25,1.83,0,4.92V6A8.66,8.66,0,0,0,1.23,9.6H5.34L7.39,5.14l2,4.46h5.84v1.11H8.66L7.38,7.83,6.05,10.71H2a29.57,29.57,0,0,0,7,6.44c6.53-4.58,8.77-8.24,9-11.2v-1C17.75,1.83,15.71.21,14,0Z"/></g></svg>