<svg id="圖層_1" data-name="圖層 1" xmlns="http://www.w3.org/2000/svg" viewBox="0 0 95 70"><defs><style>.cls-1{fill:#77c46c;}.cls-2{fill:none;stroke:#fff;stroke-miterlimit:10;stroke-width:2px;}</style></defs><title>切圖</title><polygon class="cls-1" points="77 70 0 70 0 0 77 0 95 35 77 70"/><path class="cls-2" d="M49.39,43.47h0L24.93,36.69a.83.83,0,0,0-.21-.06l-.06,0h0a4.92,4.92,0,0,0-1-.12c-3.16,0-5.73,3.16-5.73,7s2.38,6.8,5.38,7l0,0H49.1C50.7,50.57,52,49,52,47A3.38,3.38,0,0,0,49.39,43.47Z"/><polyline class="cls-2" points="51.85 20.6 49.73 24.31 40.73 27.49"/><line class="cls-2" x1="47.09" y1="27.49" x2="42.32" y2="40.73"/><circle class="cls-2" cx="24.57" cy="42.19" r="2.12"/><rect class="cls-2" x="20.33" y="27.22" width="9.54" height="3.71" rx="1.85" ry="1.85"/><line class="cls-2" x1="25.1" y1="30.93" x2="26.69" y2="37.29"/><line class="cls-2" x1="25.1" y1="44.31" x2="26.06" y2="47.55"/><line class="cls-2" x1="22.98" y1="47.35" x2="28.98" y2="47.35"/></svg>