<svg id="圖層_1" data-name="圖層 1" xmlns="http://www.w3.org/2000/svg" viewBox="0 0 95 70"><defs><style>.cls-1{fill:#f24dff;}.cls-2{fill:none;stroke:#fff;stroke-miterlimit:10;stroke-width:2px;}</style></defs><title>切圖</title><polygon class="cls-1" points="77 70 0 70 0 0 77 0 95 35 77 70"/><polyline class="cls-2" points="44.37 16 39.65 25.45 44.37 44.08"/><polyline class="cls-2" points="50.93 16 44.37 26.5 44.37 44.6"/><path class="cls-2" d="M46.74,45.21h0L28,40.75l-.17,0h-.05a3.47,3.47,0,0,0-.79-.07c-2.41.07-4.31,2.42-4.24,5.25s1.95,4.91,4.25,5v0h.26l19.44-.51a2.43,2.43,0,0,0,2.14-2.66A2.49,2.49,0,0,0,46.74,45.21Z"/><circle class="cls-2" cx="27.71" cy="46.04" r="1.84"/></svg>