<svg id="圖層_1" data-name="圖層 1" xmlns="http://www.w3.org/2000/svg" viewBox="0 0 95 70"><defs><style>.cls-1{fill:#159bff;}.cls-2{fill:none;stroke:#fff;stroke-miterlimit:10;stroke-width:2px;}</style></defs><title>切圖</title><polygon class="cls-1" points="77 70 0 70 0 0 77 0 95 35 77 70"/><circle class="cls-2" cx="50.19" cy="30.86" r="7.31"/><circle class="cls-2" cx="50.25" cy="30.8" r="2.58"/><line class="cls-2" x1="44.42" y1="26.37" x2="38.87" y2="22.33"/><line class="cls-2" x1="38.01" y1="23.77" x2="40.31" y2="18"/><line class="cls-2" x1="24.08" y1="40.74" x2="22.74" y2="46.9"/><line class="cls-2" x1="18.63" y1="47.15" x2="26.5" y2="47.15"/><line class="cls-2" x1="50.06" y1="38.17" x2="47.35" y2="47.15"/><line class="cls-2" x1="42.37" y1="47.15" x2="52.07" y2="47.15"/><path class="cls-2" d="M46.07,37.24,34.6,40.74H19.48a1.73,1.73,0,0,1-1.61-1.83h0a1.73,1.73,0,0,1,1.61-1.82H34.69l9.11-3.66"/></svg>