<svg id="圖層_1" data-name="圖層 1" xmlns="http://www.w3.org/2000/svg" viewBox="0 0 95 70"><defs><style>.cls-1{fill:#00aeb2;}.cls-2{fill:none;stroke:#fff;stroke-miterlimit:10;stroke-width:2px;}</style></defs><title>切圖</title><polygon class="cls-1" points="77 70 0 70 0 0 77 0 95 35 77 70"/><path class="cls-2" d="M46.29,36.1h0L29.11,33.74l-.16,0h0a4.21,4.21,0,0,0-.71,0,4,4,0,0,0,.43,7.91h0l.24,0h0L46.43,40.1a2,2,0,0,0-.14-4Z"/><line class="cls-2" x1="28.09" y1="33.74" x2="25.82" y2="27.71"/><line class="cls-2" x1="24.37" y1="49" x2="26.61" y2="41.37"/><line class="cls-2" x1="52.63" y1="49" x2="49.94" y2="43.62"/><line class="cls-2" x1="45.67" y1="31.1" x2="43.21" y2="18.49"/><path class="cls-2" d="M40.54,35.31a6.72,6.72,0,1,1,.14,5.29"/><rect class="cls-2" x="21.67" y="25.44" width="6.79" height="2.26" rx="1.13" ry="1.13"/><rect class="cls-2" x="27.06" y="35.99" width="2.69" height="2.69" rx="1.35" ry="1.35"/><line class="cls-2" x1="41.42" y1="18.49" x2="47.7" y2="14"/><line class="cls-2" x1="49.27" y1="49" x2="56" y2="49"/><line class="cls-2" x1="21" y1="49" x2="27.73" y2="49"/></svg>