<svg id="圖層_1" data-name="圖層 1" xmlns="http://www.w3.org/2000/svg" viewBox="0 0 95 70"><defs><style>.cls-1{fill:#ffad4a;}.cls-2{fill:none;stroke:#fff;stroke-miterlimit:10;stroke-width:2px;}</style></defs><title>切圖</title><polygon class="cls-1" points="77 70 0 70 0 0 77 0 95 35 77 70"/><polyline class="cls-2" points="53.43 20.69 51.52 24 43.39 26.84"/><line class="cls-2" x1="49.13" y1="26.83" x2="44.82" y2="38.65"/><path class="cls-2" d="M48.13,42.1,22,45.54a1.55,1.55,0,0,1-1.74-1.32l-.06-.42a1.55,1.55,0,0,1,1.34-1.72l26.15-3.44A1.55,1.55,0,0,1,49.41,40l.06.42A1.55,1.55,0,0,1,48.13,42.1Z"/><line class="cls-2" x1="24.75" y1="46.68" x2="23.12" y2="49.31"/><line class="cls-2" x1="47.69" y1="43.85" x2="47.69" y2="48.58"/></svg>