<svg id="圖層_1" data-name="圖層 1" xmlns="http://www.w3.org/2000/svg" xmlns:xlink="http://www.w3.org/1999/xlink" viewBox="0 0 414 101"><defs><style>.cls-1,.cls-2{fill:none;}.cls-2{stroke:#508447;stroke-miterlimit:10;stroke-width:0.5px;}.cls-3{clip-path:url(#clip-path);}.cls-4{fill:#77c46c;}.cls-5{fill:#56964b;}</style><clipPath id="clip-path"><rect class="cls-1" x="0.33" y="0.12" width="414" height="736"/></clipPath></defs><title>切圖</title><line class="cls-2" x1="0.83" y1="0.12" x2="413.83" y2="0.12"/><g class="cls-3"><ellipse class="cls-4" cx="201.1" cy="-138.29" rx="368.28" ry="238.93"/><path class="cls-4" d="M-67.18,25.73c-62.29-42.79-100.48-100.51-100.48-164,0-132,164.88-238.93,368.28-238.93s368.28,107,368.28,238.93C568.9-65.66,519-.59,440.11,43.23"/><ellipse class="cls-5" cx="205.1" cy="-151.29" rx="368.28" ry="238.93"/><path class="cls-5" d="M-63.18,12.73c-62.29-42.79-100.48-100.51-100.48-164,0-132,164.88-238.93,368.28-238.93s368.28,107,368.28,238.93c0,72.64-50,137.7-128.79,181.52"/></g></svg>