<svg id="圖層_1" data-name="圖層 1" xmlns="http://www.w3.org/2000/svg" viewBox="0 0 19.82 16.3"><defs><style>.cls-1{fill:#fff;}</style></defs><title>切圖</title><path class="cls-1" d="M13.77,5.36A7.17,7.17,0,0,0,9,7.19a5.24,5.24,0,0,0-1.75,4.54c-.72-.08-1.37-.18-2-.23a1.33,1.33,0,0,0-.69.11c-.64.35-1.25.74-2,1.17.13-.58.22-1.08.37-1.57a.57.57,0,0,0-.28-.78C.46,8.94-.47,6.72.23,4.42A6.08,6.08,0,0,1,4.6.35a7.55,7.55,0,0,1,8,2.24,5.09,5.09,0,0,1,1.15,2.77ZM5.3,4.65a.82.82,0,0,0-.81-.81.8.8,0,0,0-.86.76.78.78,0,0,0,.8.8.82.82,0,0,0,.87-.75Zm4.42-.81a.82.82,0,0,0-.83.79.82.82,0,0,0,.85.78.79.79,0,1,0,0-1.57Z"/><path class="cls-1" d="M17.9,16.3a6.52,6.52,0,0,0-1.68-.68,10.21,10.21,0,0,0-1.76.32A6.1,6.1,0,0,1,9.7,14.46C7.16,12.22,7.53,8.79,10.46,7a6.62,6.62,0,0,1,8.28,1.18,4.34,4.34,0,0,1-.55,6.25c-.56.48-.77.88-.4,1.51a2,2,0,0,1,.11.41Zm-6.63-6.12a.66.66,0,1,0,0-1.31.66.66,0,1,0,0,1.31Zm4.27-1.31a.68.68,0,0,0-.68.63.68.68,0,0,0,1.36.05A.67.67,0,0,0,15.54,8.87Z"/></svg>